<?xml version="1.0" encoding="UTF-8"?>
<svg xmlns="http://www.w3.org/2000/svg" version="1.1" width="250" height="250" viewBox="0 0 250 250"><rect x="0" y="0" width="250" height="250" fill="#ffffff"/><g transform="scale(7.576)"><g transform="translate(0,0)"><path fill-rule="evenodd" d="M9 0L9 1L8 1L8 2L9 2L9 3L8 3L8 4L10 4L10 7L11 7L11 4L12 4L12 5L14 5L14 8L13 8L13 6L12 6L12 9L13 9L13 10L11 10L11 11L10 11L10 9L11 9L11 8L6 8L6 9L5 9L5 8L0 8L0 10L1 10L1 11L0 11L0 14L1 14L1 16L2 16L2 18L4 18L4 19L5 19L5 20L6 20L6 21L7 21L7 20L8 20L8 21L9 21L9 22L6 22L6 23L11 23L11 22L10 22L10 20L11 20L11 21L12 21L12 22L13 22L13 23L12 23L12 25L13 25L13 24L14 24L14 25L15 25L15 24L14 24L14 23L16 23L16 25L17 25L17 26L15 26L15 27L14 27L14 28L15 28L15 27L16 27L16 28L17 28L17 29L16 29L16 30L15 30L15 29L12 29L12 27L13 27L13 26L11 26L11 25L10 25L10 24L8 24L8 27L9 27L9 28L8 28L8 33L10 33L10 31L11 31L11 29L12 29L12 30L13 30L13 31L12 31L12 33L13 33L13 32L14 32L14 33L16 33L16 32L17 32L17 33L18 33L18 32L19 32L19 31L18 31L18 30L20 30L20 31L21 31L21 33L26 33L26 31L27 31L27 30L29 30L29 32L31 32L31 33L32 33L32 32L31 32L31 31L30 31L30 30L33 30L33 27L32 27L32 26L33 26L33 24L32 24L32 26L31 26L31 27L30 27L30 25L29 25L29 24L31 24L31 23L32 23L32 22L33 22L33 21L32 21L32 20L31 20L31 19L32 19L32 18L33 18L33 17L32 17L32 16L31 16L31 15L32 15L32 14L33 14L33 13L31 13L31 15L30 15L30 13L29 13L29 12L28 12L28 11L29 11L29 10L28 10L28 11L27 11L27 12L28 12L28 13L29 13L29 14L28 14L28 16L27 16L27 13L26 13L26 14L24 14L24 13L25 13L25 11L26 11L26 10L27 10L27 9L28 9L28 8L27 8L27 9L26 9L26 8L24 8L24 9L23 9L23 6L22 6L22 5L21 5L21 3L22 3L22 4L23 4L23 5L24 5L24 4L25 4L25 3L24 3L24 2L25 2L25 1L24 1L24 0L21 0L21 3L20 3L20 2L19 2L19 3L20 3L20 4L19 4L19 5L17 5L17 4L18 4L18 3L17 3L17 4L14 4L14 3L13 3L13 4L12 4L12 2L13 2L13 1L11 1L11 2L10 2L10 0ZM16 0L16 1L14 1L14 2L15 2L15 3L16 3L16 2L18 2L18 1L20 1L20 0ZM23 1L23 2L22 2L22 3L23 3L23 2L24 2L24 1ZM10 3L10 4L11 4L11 3ZM8 5L8 7L9 7L9 5ZM16 5L16 6L15 6L15 8L14 8L14 9L15 9L15 10L13 10L13 11L12 11L12 13L11 13L11 12L10 12L10 13L11 13L11 14L8 14L8 15L6 15L6 14L7 14L7 13L8 13L8 12L9 12L9 10L7 10L7 9L6 9L6 10L5 10L5 9L3 9L3 10L2 10L2 11L1 11L1 12L2 12L2 13L1 13L1 14L2 14L2 13L4 13L4 14L3 14L3 15L2 15L2 16L3 16L3 17L4 17L4 18L7 18L7 17L8 17L8 20L9 20L9 17L10 17L10 19L11 19L11 18L13 18L13 19L12 19L12 21L15 21L15 22L16 22L16 21L15 21L15 20L14 20L14 19L15 19L15 18L16 18L16 17L14 17L14 16L18 16L18 17L17 17L17 18L18 18L18 19L17 19L17 20L19 20L19 19L20 19L20 18L19 18L19 17L20 17L20 14L18 14L18 15L14 15L14 16L13 16L13 17L12 17L12 15L13 15L13 14L12 14L12 13L14 13L14 14L16 14L16 13L17 13L17 12L18 12L18 13L20 13L20 12L21 12L21 13L22 13L22 15L23 15L23 17L24 17L24 18L23 18L23 19L22 19L22 20L20 20L20 22L17 22L17 24L18 24L18 25L20 25L20 24L21 24L21 26L19 26L19 27L18 27L18 26L17 26L17 28L18 28L18 29L20 29L20 28L21 28L21 31L22 31L22 32L23 32L23 31L24 31L24 32L25 32L25 31L26 31L26 30L27 30L27 29L26 29L26 30L25 30L25 29L24 29L24 28L23 28L23 29L22 29L22 28L21 28L21 27L22 27L22 26L23 26L23 27L24 27L24 23L27 23L27 24L28 24L28 23L30 23L30 22L31 22L31 20L29 20L29 21L27 21L27 18L28 18L28 19L29 19L29 17L30 17L30 19L31 19L31 16L30 16L30 15L29 15L29 17L27 17L27 16L26 16L26 21L27 21L27 22L25 22L25 15L24 15L24 14L23 14L23 13L22 13L22 12L21 12L21 11L23 11L23 12L24 12L24 10L25 10L25 9L24 9L24 10L23 10L23 9L22 9L22 8L20 8L20 5L19 5L19 7L18 7L18 6L17 6L17 5ZM16 6L16 7L17 7L17 6ZM21 6L21 7L22 7L22 6ZM24 6L24 7L25 7L25 6ZM15 8L15 9L16 9L16 10L15 10L15 11L14 11L14 12L15 12L15 13L16 13L16 12L17 12L17 10L18 10L18 12L20 12L20 11L21 11L21 10L22 10L22 9L18 9L18 8ZM29 8L29 9L30 9L30 8ZM31 8L31 10L33 10L33 9L32 9L32 8ZM3 10L3 11L4 11L4 10ZM6 10L6 11L5 11L5 12L4 12L4 13L7 13L7 12L8 12L8 11L7 11L7 10ZM19 10L19 11L20 11L20 10ZM6 11L6 12L7 12L7 11ZM30 11L30 12L31 12L31 11ZM4 14L4 15L3 15L3 16L5 16L5 17L7 17L7 16L6 16L6 15L5 15L5 14ZM8 15L8 17L9 17L9 16L10 16L10 17L11 17L11 16L10 16L10 15ZM21 16L21 17L22 17L22 16ZM0 18L0 19L1 19L1 20L0 20L0 25L1 25L1 22L2 22L2 23L3 23L3 25L7 25L7 24L5 24L5 23L3 23L3 22L4 22L4 20L2 20L2 19L1 19L1 18ZM6 19L6 20L7 20L7 19ZM1 20L1 21L2 21L2 20ZM22 20L22 21L23 21L23 22L24 22L24 21L23 21L23 20ZM29 21L29 22L30 22L30 21ZM21 22L21 24L22 24L22 25L23 25L23 23L22 23L22 22ZM27 22L27 23L28 23L28 22ZM9 25L9 26L10 26L10 25ZM25 25L25 28L28 28L28 25ZM26 26L26 27L27 27L27 26ZM10 27L10 29L9 29L9 31L10 31L10 29L11 29L11 27ZM31 27L31 28L29 28L29 30L30 30L30 29L31 29L31 28L32 28L32 27ZM16 30L16 31L14 31L14 32L16 32L16 31L17 31L17 32L18 32L18 31L17 31L17 30ZM22 30L22 31L23 31L23 30ZM24 30L24 31L25 31L25 30ZM27 32L27 33L28 33L28 32ZM0 0L0 7L7 7L7 0ZM1 1L1 6L6 6L6 1ZM2 2L2 5L5 5L5 2ZM26 0L26 7L33 7L33 0ZM27 1L27 6L32 6L32 1ZM28 2L28 5L31 5L31 2ZM0 26L0 33L7 33L7 26ZM1 27L1 32L6 32L6 27ZM2 28L2 31L5 31L5 28Z" fill="#000000"/></g></g></svg>
